{
	"asset":{
		"generator":"Khronos glTF Blender I/O v4.2.57",
		"version":"2.0"
	},
	"scene":0,
	"scenes":[
		{
			"name":"Scene",
			"nodes":[
				0,
				1,
				2,
				3,
				4,
				5,
				6,
				7
			]
		}
	],
	"nodes":[
		{
			"mesh":0,
			"name":"Object_3",
			"rotation":[
				-0.70710688829422,
				0,
				0,
				0.7071066498756409
			],
			"translation":[
				-1.9927915334701538,
				0,
				2.005810022354126
			]
		},
		{
			"mesh":1,
			"name":"Object_4",
			"rotation":[
				-0.70710688829422,
				0,
				0,
				0.7071066498756409
			],
			"translation":[
				-1.9927915334701538,
				0,
				2.005810022354126
			]
		},
		{
			"mesh":2,
			"name":"Object_5",
			"rotation":[
				-0.70710688829422,
				0,
				0,
				0.7071066498756409
			],
			"translation":[
				-1.9927915334701538,
				0,
				2.005810022354126
			]
		},
		{
			"mesh":3,
			"name":"Object_7",
			"rotation":[
				-0.70710688829422,
				0,
				0,
				0.7071066498756409
			],
			"translation":[
				-1.9927915334701538,
				0,
				2.005810022354126
			]
		},
		{
			"mesh":4,
			"name":"Object_9",
			"rotation":[
				-0.70710688829422,
				0,
				0,
				0.7071066498756409
			],
			"translation":[
				-1.9927915334701538,
				0,
				2.005810022354126
			]
		},
		{
			"mesh":5,
			"name":"Object_10",
			"rotation":[
				-0.70710688829422,
				0,
				0,
				0.7071066498756409
			],
			"translation":[
				-1.9927915334701538,
				0,
				2.005810022354126
			]
		},
		{
			"mesh":6,
			"name":"Object_11",
			"rotation":[
				-0.70710688829422,
				0,
				0,
				0.7071066498756409
			],
			"translation":[
				-1.9927915334701538,
				0,
				2.005810022354126
			]
		},
		{
			"mesh":7,
			"name":"screen",
			"rotation":[
				0,
				-0.7071068286895752,
				-0.7071068286895752,
				1.1520233300643667e-07
			],
			"scale":[
				1.018781304359436,
				1,
				1.793429970741272
			],
			"translation":[
				0,
				2.3995308876037598,
				0.10407646000385284
			]
		}
	],
	"materials":[
		{
			"doubleSided":true,
			"name":"black.001",
			"pbrMetallicRoughness":{
				"baseColorFactor":[
					0,
					0,
					0,
					1
				],
				"metallicFactor":0,
				"roughnessFactor":0.6000000238418579
			}
		},
		{
			"doubleSided":true,
			"emissiveFactor":[
				1,
				1,
				1
			],
			"emissiveTexture":{
				"index":0
			},
			"name":"flash.001",
			"pbrMetallicRoughness":{
				"baseColorTexture":{
					"index":1
				},
				"metallicFactor":0,
				"roughnessFactor":0.16634908318519592
			}
		},
		{
			"doubleSided":true,
			"name":"lens.001",
			"pbrMetallicRoughness":{
				"baseColorTexture":{
					"index":2
				},
				"roughnessFactor":0
			}
		},
		{
			"doubleSided":true,
			"name":"material",
			"pbrMetallicRoughness":{
				"baseColorFactor":[
					0.2622506618499756,
					0.0033465358428657055,
					0.013702083379030228,
					1
				],
				"metallicFactor":0.6480563879013062,
				"roughnessFactor":0.27877286076545715
			}
		},
		{
			"doubleSided":true,
			"name":"white.001",
			"pbrMetallicRoughness":{
				"metallicFactor":0,
				"roughnessFactor":0.04096798598766327
			}
		},
		{
			"doubleSided":true,
			"name":"red2.001",
			"pbrMetallicRoughness":{
				"baseColorFactor":[
					0.3806290626525879,
					0,
					0.002188862767070532,
					1
				],
				"metallicFactor":0.6663491129875183,
				"roughnessFactor":0.2970655560493469
			}
		},
		{
			"doubleSided":true,
			"name":"silver.001",
			"pbrMetallicRoughness":{
				"metallicFactor":0.8614710569381714,
				"roughnessFactor":0.13243140280246735
			}
		}
	],
	"meshes":[
		{
			"name":"Object_0.001",
			"primitives":[
				{
					"attributes":{
						"POSITION":0,
						"NORMAL":1,
						"TEXCOORD_0":2
					},
					"indices":3,
					"material":0
				}
			]
		},
		{
			"name":"Object_1.001",
			"primitives":[
				{
					"attributes":{
						"POSITION":4,
						"NORMAL":5,
						"TEXCOORD_0":6
					},
					"indices":7,
					"material":1
				}
			]
		},
		{
			"name":"Object_2.001",
			"primitives":[
				{
					"attributes":{
						"POSITION":8,
						"NORMAL":9,
						"TEXCOORD_0":10
					},
					"indices":11,
					"material":2
				}
			]
		},
		{
			"name":"Object_4.001",
			"primitives":[
				{
					"attributes":{
						"POSITION":12,
						"NORMAL":13,
						"TEXCOORD_0":14
					},
					"indices":15,
					"material":3
				}
			]
		},
		{
			"name":"Object_6.001",
			"primitives":[
				{
					"attributes":{
						"POSITION":16,
						"NORMAL":17,
						"TEXCOORD_0":18
					},
					"indices":19,
					"material":4
				}
			]
		},
		{
			"name":"Object_7.001",
			"primitives":[
				{
					"attributes":{
						"POSITION":20,
						"NORMAL":21,
						"TEXCOORD_0":22
					},
					"indices":23,
					"material":5
				}
			]
		},
		{
			"name":"Object_8.001",
			"primitives":[
				{
					"attributes":{
						"POSITION":24,
						"NORMAL":25,
						"TEXCOORD_0":26
					},
					"indices":27,
					"material":6
				}
			]
		},
		{
			"name":"Plane",
			"primitives":[
				{
					"attributes":{
						"POSITION":28,
						"NORMAL":29,
						"TEXCOORD_0":30
					},
					"indices":31
				}
			]
		}
	],
	"textures":[
		{
			"sampler":0,
			"source":0
		},
		{
			"sampler":0,
			"source":0
		},
		{
			"sampler":0,
			"source":1
		}
	],
	"images":[
		{
			"mimeType":"image/png",
			"name":"flash_baseColor",
			"uri":"textures/flash_baseColor.png"
		},
		{
			"mimeType":"image/jpeg",
			"name":"lens_baseColor",
			"uri":"textures/lens_baseColor.jpg"
		}
	],
	"accessors":[
		{
			"bufferView":0,
			"componentType":5126,
			"count":494,
			"max":[
				2.830146074295044,
				2.124735116958618,
				4.627630233764648
			],
			"min":[
				0.9156479835510254,
				1.895946979522705,
				0.042204998433589935
			],
			"type":"VEC3"
		},
		{
			"bufferView":1,
			"componentType":5126,
			"count":494,
			"type":"VEC3"
		},
		{
			"bufferView":2,
			"componentType":5126,
			"count":494,
			"type":"VEC2"
		},
		{
			"bufferView":3,
			"componentType":5123,
			"count":1542,
			"type":"SCALAR"
		},
		{
			"bufferView":4,
			"componentType":5126,
			"count":21,
			"max":[
				2.3827219009399414,
				2.124735116958618,
				4.480967998504639
			],
			"min":[
				2.2358031272888184,
				2.124735116958618,
				4.334047794342041
			],
			"type":"VEC3"
		},
		{
			"bufferView":5,
			"componentType":5126,
			"count":21,
			"type":"VEC3"
		},
		{
			"bufferView":6,
			"componentType":5126,
			"count":21,
			"type":"VEC2"
		},
		{
			"bufferView":7,
			"componentType":5123,
			"count":60,
			"type":"SCALAR"
		},
		{
			"bufferView":8,
			"componentType":5126,
			"count":144,
			"max":[
				2.9143550395965576,
				2.1553549766540527,
				4.544851779937744
			],
			"min":[
				2.615433931350708,
				2.1553540229797363,
				4.245931148529053
			],
			"type":"VEC3"
		},
		{
			"bufferView":9,
			"componentType":5126,
			"count":144,
			"type":"VEC3"
		},
		{
			"bufferView":10,
			"componentType":5126,
			"count":144,
			"type":"VEC2"
		},
		{
			"bufferView":11,
			"componentType":5123,
			"count":600,
			"type":"SCALAR"
		},
		{
			"bufferView":12,
			"componentType":5126,
			"count":5276,
			"max":[
				3.14526629447937,
				2.1553549766540527,
				4.751630783081055
			],
			"min":[
				0.8631659746170044,
				1.9051870107650757,
				0.04270699992775917
			],
			"type":"VEC3"
		},
		{
			"bufferView":13,
			"componentType":5126,
			"count":5276,
			"type":"VEC3"
		},
		{
			"bufferView":14,
			"componentType":5126,
			"count":5276,
			"type":"VEC2"
		},
		{
			"bufferView":15,
			"componentType":5123,
			"count":29100,
			"type":"SCALAR"
		},
		{
			"bufferView":16,
			"componentType":5126,
			"count":266,
			"max":[
				3.060912847518921,
				1.910423994064331,
				4.68390417098999
			],
			"min":[
				0.9601051807403564,
				1.8964550495147705,
				0.11043401062488556
			],
			"type":"VEC3"
		},
		{
			"bufferView":17,
			"componentType":5126,
			"count":266,
			"type":"VEC3"
		},
		{
			"bufferView":18,
			"componentType":5126,
			"count":266,
			"type":"VEC2"
		},
		{
			"bufferView":19,
			"componentType":5123,
			"count":795,
			"type":"SCALAR"
		},
		{
			"bufferView":20,
			"componentType":5126,
			"count":1419,
			"max":[
				3.1338109970092773,
				2.1252551078796387,
				4.720648765563965
			],
			"min":[
				0.8787859678268433,
				1.9051870107650757,
				0.07368899881839752
			],
			"type":"VEC3"
		},
		{
			"bufferView":21,
			"componentType":5126,
			"count":1419,
			"type":"VEC3"
		},
		{
			"bufferView":22,
			"componentType":5126,
			"count":1419,
			"type":"VEC2"
		},
		{
			"bufferView":23,
			"componentType":5123,
			"count":6084,
			"type":"SCALAR"
		},
		{
			"bufferView":24,
			"componentType":5126,
			"count":298,
			"max":[
				2.2226359844207764,
				2.124695062637329,
				3.7643229961395264
			],
			"min":[
				1.7815029621124268,
				1.896474003791809,
				0.04316699877381325
			],
			"type":"VEC3"
		},
		{
			"bufferView":25,
			"componentType":5126,
			"count":298,
			"type":"VEC3"
		},
		{
			"bufferView":26,
			"componentType":5126,
			"count":298,
			"type":"VEC2"
		},
		{
			"bufferView":27,
			"componentType":5123,
			"count":1023,
			"type":"SCALAR"
		},
		{
			"bufferView":28,
			"componentType":5126,
			"count":4,
			"max":[
				1,
				0,
				1
			],
			"min":[
				-1,
				0,
				-1
			],
			"type":"VEC3"
		},
		{
			"bufferView":29,
			"componentType":5126,
			"count":4,
			"type":"VEC3"
		},
		{
			"bufferView":30,
			"componentType":5126,
			"count":4,
			"type":"VEC2"
		},
		{
			"bufferView":31,
			"componentType":5123,
			"count":6,
			"type":"SCALAR"
		}
	],
	"bufferViews":[
		{
			"buffer":0,
			"byteLength":5928,
			"byteOffset":0,
			"target":34962
		},
		{
			"buffer":0,
			"byteLength":5928,
			"byteOffset":5928,
			"target":34962
		},
		{
			"buffer":0,
			"byteLength":3952,
			"byteOffset":11856,
			"target":34962
		},
		{
			"buffer":0,
			"byteLength":3084,
			"byteOffset":15808,
			"target":34963
		},
		{
			"buffer":0,
			"byteLength":252,
			"byteOffset":18892,
			"target":34962
		},
		{
			"buffer":0,
			"byteLength":252,
			"byteOffset":19144,
			"target":34962
		},
		{
			"buffer":0,
			"byteLength":168,
			"byteOffset":19396,
			"target":34962
		},
		{
			"buffer":0,
			"byteLength":120,
			"byteOffset":19564,
			"target":34963
		},
		{
			"buffer":0,
			"byteLength":1728,
			"byteOffset":19684,
			"target":34962
		},
		{
			"buffer":0,
			"byteLength":1728,
			"byteOffset":21412,
			"target":34962
		},
		{
			"buffer":0,
			"byteLength":1152,
			"byteOffset":23140,
			"target":34962
		},
		{
			"buffer":0,
			"byteLength":1200,
			"byteOffset":24292,
			"target":34963
		},
		{
			"buffer":0,
			"byteLength":63312,
			"byteOffset":25492,
			"target":34962
		},
		{
			"buffer":0,
			"byteLength":63312,
			"byteOffset":88804,
			"target":34962
		},
		{
			"buffer":0,
			"byteLength":42208,
			"byteOffset":152116,
			"target":34962
		},
		{
			"buffer":0,
			"byteLength":58200,
			"byteOffset":194324,
			"target":34963
		},
		{
			"buffer":0,
			"byteLength":3192,
			"byteOffset":252524,
			"target":34962
		},
		{
			"buffer":0,
			"byteLength":3192,
			"byteOffset":255716,
			"target":34962
		},
		{
			"buffer":0,
			"byteLength":2128,
			"byteOffset":258908,
			"target":34962
		},
		{
			"buffer":0,
			"byteLength":1590,
			"byteOffset":261036,
			"target":34963
		},
		{
			"buffer":0,
			"byteLength":17028,
			"byteOffset":262628,
			"target":34962
		},
		{
			"buffer":0,
			"byteLength":17028,
			"byteOffset":279656,
			"target":34962
		},
		{
			"buffer":0,
			"byteLength":11352,
			"byteOffset":296684,
			"target":34962
		},
		{
			"buffer":0,
			"byteLength":12168,
			"byteOffset":308036,
			"target":34963
		},
		{
			"buffer":0,
			"byteLength":3576,
			"byteOffset":320204,
			"target":34962
		},
		{
			"buffer":0,
			"byteLength":3576,
			"byteOffset":323780,
			"target":34962
		},
		{
			"buffer":0,
			"byteLength":2384,
			"byteOffset":327356,
			"target":34962
		},
		{
			"buffer":0,
			"byteLength":2046,
			"byteOffset":329740,
			"target":34963
		},
		{
			"buffer":0,
			"byteLength":48,
			"byteOffset":331788,
			"target":34962
		},
		{
			"buffer":0,
			"byteLength":48,
			"byteOffset":331836,
			"target":34962
		},
		{
			"buffer":0,
			"byteLength":32,
			"byteOffset":331884,
			"target":34962
		},
		{
			"buffer":0,
			"byteLength":12,
			"byteOffset":331916,
			"target":34963
		}
	],
	"samplers":[
		{
			"magFilter":9729,
			"minFilter":9987
		}
	],
	"buffers":[
		{
			"byteLength":331928,
			"uri":"iphone.bin"
		}
	]
}
